<svg width="60" height="60" viewBox="0 0 60 60" fill="none" xmlns="http://www.w3.org/2000/svg">
<circle cx="30" cy="30" r="28.7324" stroke="#FF8A63" stroke-width="2.53521"/>
<path d="M25.9859 6.4437L30.845 5.91553L35.9155 7.50003H39.507L42.676 11.7254L45.9507 14.155V17.2183L44.0493 21.1268L42.676 23.662L40.7746 22.5L38.6619 26.831L40.7746 32.7465L44.0493 36.9719L45.9507 42.3592L49.2253 38.7676V34.5423L52.1831 38.0282V43.3099L53.5563 42.3592L51.5493 46.3733L46.9014 49.2254L45.9507 52.7113V53.5564L44.6831 54.9296H40.7746H37.3943C37.3943 54.9296 36.6494 53.8437 35.9155 53.5564C35.1856 53.2707 34.351 52.9095 33.9084 53.5564C33.6056 53.999 33.9084 54.9296 33.9084 54.9296H29.4718L25.9859 54.5071V51.3381L28.838 50.0705L29.4718 49.2254L25.9859 47.2183L23.0281 54.5071L19.8591 54.9296L16.1619 53.5564V51.3381L18.8028 49.2254V41.0916L18.0633 35.7043L18.8028 32.1127H17.4295L20.4929 26.831C20.4929 26.831 15.1056 25.986 16.1619 22.5C17.2183 19.0141 14.1549 21.1268 14.1549 21.1268L13.5211 17.2183L12.676 14.6831V11.7254L17.4295 9.82398L19.8591 7.50003L22.6056 5.91553L25.9859 6.4437Z" stroke="#FF8A63" stroke-width="1.69014"/>
</svg>
