<svg width="62" height="73" viewBox="0 0 62 73" fill="none" xmlns="http://www.w3.org/2000/svg">
<path d="M20.0725 0.77879L27.2374 0L34.7138 2.33637H40.0096L44.6823 8.56669L49.5108 12.1491V16.6661L46.7072 22.4292L44.6823 26.1674L41.8787 24.454L38.7635 30.8401L41.8787 39.5625L46.7072 45.7929L49.5108 53.7365L54.3393 48.4408V42.2104L58.7005 47.3505V55.1384L60.7254 53.7365L57.766 59.6553L50.9126 63.8608L49.5108 69.0008V70.2469L47.6417 72.2717H41.8787H36.8944C36.8944 72.2717 35.7959 70.6705 34.7138 70.2469C33.6376 69.8256 32.407 69.2931 31.7544 70.2469C31.3079 70.8995 31.7544 72.2717 31.7544 72.2717H25.2126L20.0725 71.6487V66.976L24.278 65.1069L25.2126 63.8608L20.0725 60.9014L15.7113 71.6487L11.0386 72.2717L5.58704 70.2469V66.976L9.48099 63.8608V51.8674L8.39068 43.9238L9.48099 38.628H7.45614L11.9731 30.8401C11.9731 30.8401 4.02946 29.594 5.58704 24.454C7.14462 19.314 2.62763 22.4292 2.62763 22.4292L1.69309 16.6661L0.447021 12.9279V8.56669L7.45614 5.76305L11.0386 2.33637L15.0883 0L20.0725 0.77879Z" fill="white"/>
<path d="M36.1617 6.42392L41.7827 1.60598H45.7976L54.6305 0L61.0544 1.60598V72.3267H47.4036V64.2149V57.0123L40.9797 57.8153L24.9199 57.0123L16.89 55.4063L12.072 52.1944L14.481 43.3615V36.9376L21.7079 29.7107L24.9199 21.6807L34.5558 11.2419L36.1617 6.42392Z" fill="#FF918D"/>
<path d="M36.1619 33.7255L43.3888 24.8926L47.4038 20.8777L49.0098 27.3016L45.7978 36.1345V43.3614L36.1619 45.7704L32.95 43.3614L36.1619 33.7255Z" fill="white"/>
</svg>
