<svg width="23" height="23" viewBox="0 0 23 23" fill="none" xmlns="http://www.w3.org/2000/svg">
<path d="M2.79541 5.5908H4.65905M4.65905 5.5908H19.5681M4.65905 5.5908V18.6363C4.65905 19.1305 4.85539 19.6045 5.20489 19.954C5.55439 20.3035 6.02842 20.4999 6.52268 20.4999H15.8409C16.3351 20.4999 16.8092 20.3035 17.1587 19.954C17.5082 19.6045 17.7045 19.1305 17.7045 18.6363V5.5908M7.4545 5.5908V3.72716C7.4545 3.23289 7.65085 2.75887 8.00035 2.40937C8.34985 2.05987 8.82387 1.86353 9.31814 1.86353H13.0454C13.5397 1.86353 14.0137 2.05987 14.3632 2.40937C14.7127 2.75887 14.909 3.23289 14.909 3.72716V5.5908" stroke="white" stroke-width="1.86364" stroke-linecap="round" stroke-linejoin="round"/>
</svg>
