<svg width="183" height="73" viewBox="0 0 183 73" fill="none" xmlns="http://www.w3.org/2000/svg">
<path d="M10.2239 41.6068C10.27 41.6414 10.4026 41.6587 10.6218 41.6587C10.8409 41.6587 11.0081 41.5722 11.1234 41.3992C11.2388 41.2262 11.2964 40.9436 11.2964 40.5515V39.2368C11.2964 38.8216 11.2445 38.5275 11.1407 38.3545C11.0485 38.17 10.887 38.0777 10.6564 38.0777C10.4372 38.0777 10.2873 38.1008 10.2066 38.1469C10.2181 38.2046 10.2239 38.3026 10.2239 38.441V41.6068ZM10.6564 49.4261V52.0728C10.1489 52.4996 9.43387 52.8513 8.51124 53.1281C7.58862 53.3934 6.62562 53.526 5.62226 53.526C4.19219 53.526 3.02161 53.2492 2.11051 52.6956C1.07256 52.0613 0.553577 51.1445 0.553577 49.945V33.5107C0.553577 33.1417 0.801533 32.7726 1.29745 32.4036C1.80489 32.0345 2.50263 31.7001 3.39066 31.4002C5.29358 30.7544 7.46752 30.4315 9.91249 30.4315C13.2916 30.4315 15.9845 31.2734 17.9912 32.9571C19.998 34.6409 21.0013 36.9071 21.0013 39.7558C21.0013 42.5928 20.096 44.8014 18.2853 46.3814C16.5439 47.8807 14.1277 48.6303 11.0369 48.6303C10.3334 48.6303 9.57803 48.5496 8.77073 48.3881C7.97497 48.2151 7.43869 48.0652 7.1619 47.9383C7.06964 48.0306 7.02351 48.1574 7.02351 48.3189C7.02351 48.9071 8.23446 49.2761 10.6564 49.4261ZM29.6579 30.8985H39.6396C39.974 31.4521 40.222 32.0576 40.3834 32.715C40.5449 33.3608 40.6256 33.9432 40.6256 34.4622C40.6256 35.627 40.395 36.5035 39.9336 37.0917C39.4839 37.6798 38.8496 37.9739 38.0307 37.9739H31.0591C30.6324 37.9739 30.419 38.1412 30.419 38.4756V38.614C30.419 38.6832 30.4306 38.7293 30.4536 38.7524H38.7227C38.9303 39.1099 39.109 39.5597 39.259 40.1017C39.3974 40.6899 39.4666 41.2147 39.4666 41.676C39.4666 43.0484 39.2128 44.1209 38.7054 44.8936H34.9515C33.1985 44.8936 32.0106 44.9628 31.3878 45.1012C30.765 45.2281 30.3787 45.3377 30.2288 45.4299C30.0788 45.5337 30.0039 45.6663 30.0039 45.8278C30.0039 45.9893 30.0846 46.1161 30.2461 46.2084C30.8458 46.0123 31.4743 45.8739 32.1317 45.7932C32.9966 45.7125 33.9366 45.6721 34.9515 45.6721H39.8126C40.5161 46.6639 40.8678 47.8576 40.8678 49.2531C40.8678 50.0373 40.7698 50.7869 40.5737 51.502C40.3777 52.217 40.0836 52.7937 39.6915 53.2319H26.7343C25.3042 53.2319 24.1567 52.8859 23.2917 52.1939C22.3461 51.4558 21.8732 50.3718 21.8732 48.9417V32.4901C21.8732 31.9365 22.5075 31.5328 23.7761 31.2791C25.0447 31.0254 27.0053 30.8985 29.6579 30.8985ZM56.5133 39.7385V51.8999C55.9828 52.3612 55.2735 52.7475 54.3855 53.0589C53.4974 53.3703 52.4191 53.526 51.1505 53.526C49.8819 53.526 48.8036 53.2434 47.9155 52.6783C46.9122 52.0671 46.4105 51.2021 46.4105 50.0834V38.9427H42.3798C41.5494 37.7548 41.1342 36.4574 41.1342 35.0504C41.1342 34.0931 41.2841 33.2628 41.584 32.5593C41.8954 31.8442 42.276 31.2907 42.7258 30.8985H60.6132C60.9477 31.4175 61.2244 32.0461 61.4436 32.7842C61.6627 33.5223 61.7723 34.2546 61.7723 34.9812C61.7723 36.342 61.4724 37.3454 60.8727 37.9912C60.273 38.6255 59.4657 38.9427 58.4508 38.9427H53.3821C53.3475 39.0234 53.3302 39.1099 53.3302 39.2022C53.3302 39.4098 53.4513 39.5482 53.6935 39.6174C53.9472 39.6981 54.4893 39.7385 55.3196 39.7385H56.5133Z" fill="white"/>
<path d="M81.0725 0.77879L88.2374 0L95.7138 2.33637H101.01L105.682 8.56669L110.511 12.1491V16.6661L107.707 22.4292L105.682 26.1674L102.879 24.454L99.7635 30.8401L102.879 39.5625L107.707 45.7929L110.511 53.7365L115.339 48.4408V42.2104L119.701 47.3505V55.1384L121.725 53.7365L118.766 59.6553L111.913 63.8608L110.511 69.0008V70.2469L108.642 72.2717H102.879H97.8944C97.8944 72.2717 96.7959 70.6705 95.7138 70.2469C94.6376 69.8256 93.407 69.2931 92.7544 70.2469C92.3079 70.8995 92.7544 72.2717 92.7544 72.2717H86.2126L81.0725 71.6487V66.976L85.278 65.1069L86.2126 63.8608L81.0725 60.9014L76.7113 71.6487L72.0386 72.2717L66.587 70.2469V66.976L70.481 63.8608V51.8674L69.3907 43.9238L70.481 38.628H68.4561L72.9731 30.8401C72.9731 30.8401 65.0295 29.594 66.587 24.454C68.1446 19.314 63.6276 22.4292 63.6276 22.4292L62.6931 16.6661L61.447 12.9279V8.56669L68.4561 5.76305L72.0386 2.33637L76.0883 0L81.0725 0.77879Z" fill="white"/>
<path d="M97.1617 6.42392L102.783 1.60598H106.798L115.631 0L122.054 1.60598V72.3267H108.404V64.2149V57.0123L101.98 57.8153L85.9199 57.0123L77.89 55.4063L73.072 52.1944L75.481 43.3615V36.9376L82.7079 29.7107L85.9199 21.6807L95.5558 11.2419L97.1617 6.42392Z" fill="#FF918D"/>
<path d="M97.1619 33.7255L104.389 24.8926L108.404 20.8777L110.01 27.3016L106.798 36.1345V43.3614L97.1619 45.7704L93.95 43.3614L97.1619 33.7255Z" fill="white"/>
<path d="M122.79 47.9556C123.113 47.9556 123.275 47.7769 123.275 47.4193C120.726 45.724 118.777 43.6423 117.428 41.1743C116.09 38.7063 115.34 35.9845 115.179 33.009C115.698 32.2363 116.47 31.6424 117.497 31.2272C118.535 30.812 119.601 30.6044 120.697 30.6044C122.139 30.6044 123.378 30.887 124.416 31.4521C125.062 33.1936 125.593 34.8543 126.008 36.4343C125.443 38.9254 125.16 40.1709 125.16 40.1709C125.114 40.3439 125.091 40.5054 125.091 40.6553C125.091 41.0474 125.299 41.2435 125.714 41.2435C125.852 40.8053 126.175 39.479 126.683 37.2647C126.81 36.6996 126.977 35.9153 127.184 34.912C127.403 33.8971 127.68 32.7034 128.015 31.331C129.076 30.8236 130.287 30.5698 131.648 30.5698C133.297 30.5698 134.611 30.9735 135.592 31.7808C136.572 32.5766 137.062 33.7298 137.062 35.2407C137.062 37.455 136.439 39.6116 135.194 41.7106C134.214 43.3713 132.916 44.9225 131.302 46.3641V52.0728C130.344 52.661 129.485 53.0474 128.724 53.2319C127.963 53.428 127.161 53.526 126.319 53.526C124.728 53.526 123.477 53.2261 122.565 52.6264C121.654 52.0267 121.199 51.1329 121.199 49.945V46.9004C121.406 47.108 121.672 47.3386 121.995 47.5923C122.317 47.8345 122.583 47.9556 122.79 47.9556ZM149.282 41.2781C149.282 40.1248 149.231 39.3348 149.127 38.9081C149.023 38.4699 148.833 38.2507 148.556 38.2507C148.383 38.2507 148.227 38.3084 148.089 38.4237C148.112 38.6313 148.146 38.9081 148.193 39.2541C148.239 39.6001 148.262 40.3382 148.262 41.4684V42.5928C148.262 43.3771 148.244 43.948 148.21 44.3055C148.175 44.663 148.146 44.9686 148.123 45.2223C148.112 45.3607 148.1 45.4991 148.089 45.6375C148.227 45.7528 148.383 45.8105 148.556 45.8105C148.833 45.8105 149.023 45.5972 149.127 45.1704C149.231 44.7322 149.282 43.9364 149.282 42.7831V41.2781ZM148.59 53.7682C146.538 53.7682 144.652 53.3472 142.934 52.5053C141.227 51.6519 139.849 50.3545 138.799 48.613C137.75 46.86 137.225 44.6745 137.225 42.0566C137.225 38.2623 138.367 35.2983 140.65 33.1647C142.68 31.2849 145.292 30.345 148.487 30.345C151.958 30.345 154.703 31.4233 156.721 33.5799C158.751 35.725 159.766 38.5506 159.766 42.0566C159.766 45.9547 158.682 48.9301 156.514 50.983C154.541 52.8398 151.9 53.7682 148.59 53.7682ZM175.844 30.5871C177.228 30.5871 178.427 30.962 179.442 31.7116C180.457 32.4612 180.964 33.528 180.964 34.912V44.5304C180.964 47.4597 180.071 49.7201 178.283 51.3117C176.495 52.8917 174.022 53.6817 170.862 53.6817C167.713 53.6817 165.262 52.9032 163.509 51.3463C161.722 49.7893 160.828 47.5174 160.828 44.5304V32.196C162.189 31.1119 163.763 30.5698 165.551 30.5698C167.05 30.5698 168.238 30.9677 169.114 31.7635C169.991 32.5477 170.429 33.7414 170.429 35.3444V45.4299C170.556 45.5222 170.7 45.5683 170.862 45.5683C171.035 45.5683 171.156 45.528 171.225 45.4472C171.306 45.355 171.346 45.1877 171.346 44.9455V35.3271C171.346 34.6006 171.311 34.0239 171.242 33.5972C171.173 33.1705 171.035 32.7438 170.827 32.3171C172.211 31.1638 173.883 30.5871 175.844 30.5871Z" fill="white"/>
</svg>
