<svg width="62" height="24" viewBox="0 0 62 24" fill="none" xmlns="http://www.w3.org/2000/svg">
<path d="M10.2239 11.6068C10.27 11.6414 10.4026 11.6587 10.6218 11.6587C10.8409 11.6587 11.0081 11.5722 11.1234 11.3992C11.2388 11.2262 11.2964 10.9436 11.2964 10.5515V9.23678C11.2964 8.8216 11.2445 8.52751 11.1407 8.35452C11.0485 8.17 10.887 8.07773 10.6564 8.07773C10.4372 8.07773 10.2873 8.1008 10.2066 8.14693C10.2181 8.20459 10.2239 8.30262 10.2239 8.44102V11.6068ZM10.6564 19.4261V22.0728C10.1489 22.4996 9.43387 22.8513 8.51124 23.1281C7.58862 23.3934 6.62562 23.526 5.62226 23.526C4.19219 23.526 3.02161 23.2492 2.11051 22.6956C1.07256 22.0613 0.553577 21.1445 0.553577 19.945V3.51072C0.553577 3.14167 0.801533 2.77262 1.29745 2.40357C1.80489 2.03452 2.50263 1.70007 3.39066 1.40021C5.29358 0.754373 7.46752 0.431453 9.91249 0.431453C13.2916 0.431453 15.9845 1.27335 17.9912 2.95715C19.998 4.64094 21.0013 6.90715 21.0013 9.75576C21.0013 12.5928 20.096 14.8014 18.2853 16.3814C16.5439 17.8807 14.1277 18.6303 11.0369 18.6303C10.3334 18.6303 9.57803 18.5496 8.77073 18.3881C7.97497 18.2151 7.43869 18.0652 7.1619 17.9383C7.06964 18.0306 7.02351 18.1574 7.02351 18.3189C7.02351 18.9071 8.23446 19.2761 10.6564 19.4261ZM29.6579 0.898534H39.6396C39.974 1.45211 40.222 2.05759 40.3834 2.71496C40.5449 3.3608 40.6256 3.94321 40.6256 4.46218C40.6256 5.627 40.395 6.5035 39.9336 7.09167C39.4839 7.67985 38.8496 7.97394 38.0307 7.97394H31.0591C30.6324 7.97394 30.419 8.14116 30.419 8.47562V8.61401C30.419 8.68321 30.4306 8.72934 30.4536 8.75241H38.7227C38.9303 9.10992 39.109 9.5597 39.259 10.1017C39.3974 10.6899 39.4666 11.2147 39.4666 11.676C39.4666 13.0484 39.2128 14.1209 38.7054 14.8936H34.9515C33.1985 14.8936 32.0106 14.9628 31.3878 15.1012C30.765 15.2281 30.3787 15.3377 30.2288 15.4299C30.0788 15.5337 30.0039 15.6663 30.0039 15.8278C30.0039 15.9893 30.0846 16.1161 30.2461 16.2084C30.8458 16.0123 31.4743 15.8739 32.1317 15.7932C32.9966 15.7125 33.9366 15.6721 34.9515 15.6721H39.8126C40.5161 16.6639 40.8678 17.8576 40.8678 19.2531C40.8678 20.0373 40.7698 20.7869 40.5737 21.502C40.3777 22.217 40.0836 22.7937 39.6915 23.2319H26.7343C25.3042 23.2319 24.1567 22.8859 23.2917 22.1939C22.3461 21.4558 21.8732 20.3718 21.8732 18.9417V2.49007C21.8732 1.93649 22.5075 1.53284 23.7761 1.27912C25.0447 1.0254 27.0053 0.898534 29.6579 0.898534ZM56.5133 9.73846V21.8999C55.9828 22.3612 55.2735 22.7475 54.3855 23.0589C53.4974 23.3703 52.4191 23.526 51.1505 23.526C49.8819 23.526 48.8036 23.2434 47.9155 22.6783C46.9122 22.0671 46.4105 21.2021 46.4105 20.0834V8.9427H42.3798C41.5494 7.75481 41.1342 6.45737 41.1342 5.05036C41.1342 4.09313 41.2841 3.26277 41.584 2.55926C41.8954 1.84423 42.276 1.29065 42.7258 0.898534H60.6132C60.9477 1.41751 61.2244 2.04605 61.4436 2.78415C61.6627 3.52226 61.7723 4.25459 61.7723 4.98116C61.7723 6.34204 61.4724 7.3454 60.8727 7.99124C60.273 8.62554 59.4657 8.9427 58.4508 8.9427H53.3821C53.3475 9.02343 53.3302 9.10992 53.3302 9.20219C53.3302 9.40978 53.4513 9.54817 53.6935 9.61737C53.9472 9.6981 54.4893 9.73846 55.3196 9.73846H56.5133Z" fill="white"/>
</svg>
