<svg width="66" height="24" viewBox="0 0 66 24" fill="none" xmlns="http://www.w3.org/2000/svg">
<path d="M7.79032 17.9556C8.11324 17.9556 8.2747 17.7769 8.2747 17.4193C5.72594 15.724 3.77689 13.6423 2.42755 11.1743C1.08974 8.70627 0.340101 5.98452 0.178642 3.00905C0.69762 2.23634 1.47032 1.6424 2.49674 1.22722C3.5347 0.812037 4.60149 0.604446 5.69711 0.604446C7.13872 0.604446 8.3785 0.887001 9.41645 1.45211C10.0623 3.19357 10.5928 4.8543 11.008 6.4343C10.4429 8.9254 10.1603 10.1709 10.1603 10.1709C10.1142 10.3439 10.0911 10.5054 10.0911 10.6553C10.0911 11.0474 10.2987 11.2435 10.7139 11.2435C10.8523 10.8053 11.1752 9.47897 11.6827 7.26467C11.8095 6.69956 11.9767 5.91532 12.1843 4.91197C12.4035 3.89707 12.6803 2.70342 13.0147 1.33102C14.0757 0.82357 15.2867 0.569848 16.6476 0.569848C18.2967 0.569848 19.6115 0.973497 20.5918 1.7808C21.5721 2.57656 22.0622 3.72985 22.0622 5.24065C22.0622 7.45496 21.4395 9.6116 20.1939 11.7106C19.2136 13.3713 17.9162 14.9225 16.3016 16.3641V22.0728C15.3443 22.661 14.4851 23.0474 13.724 23.2319C12.9628 23.428 12.1613 23.526 11.3194 23.526C9.72784 23.526 8.47653 23.2261 7.56543 22.6264C6.65434 22.0267 6.19879 21.1329 6.19879 19.945V16.9004C6.40638 17.108 6.67164 17.3386 6.99456 17.5923C7.31748 17.8345 7.58273 17.9556 7.79032 17.9556ZM34.2824 11.2781C34.2824 10.1248 34.2305 9.33481 34.1267 8.9081C34.0229 8.46985 33.8327 8.25073 33.5559 8.25073C33.3829 8.25073 33.2272 8.30839 33.0888 8.42372C33.1119 8.63131 33.1464 8.9081 33.1926 9.25408C33.2387 9.60007 33.2618 10.3382 33.2618 11.4684V12.5928C33.2618 13.3771 33.2445 13.948 33.2099 14.3055C33.1753 14.663 33.1464 14.9686 33.1234 15.2223C33.1119 15.3607 33.1003 15.4991 33.0888 15.6375C33.2272 15.7528 33.3829 15.8105 33.5559 15.8105C33.8327 15.8105 34.0229 15.5972 34.1267 15.1704C34.2305 14.7322 34.2824 13.9364 34.2824 12.7831V11.2781ZM33.5905 23.7682C31.5376 23.7682 29.652 23.3472 27.9336 22.5053C26.2267 21.6519 24.8486 20.3545 23.7991 18.613C22.7496 16.86 22.2248 14.6745 22.2248 12.0566C22.2248 8.26226 23.3666 5.29832 25.6501 3.16474C27.6799 1.28488 30.2921 0.344957 33.4867 0.344957C36.9581 0.344957 39.7029 1.42328 41.7211 3.57992C43.7509 5.72503 44.7658 8.55058 44.7658 12.0566C44.7658 15.9547 43.6817 18.9301 41.5135 20.983C39.5414 22.8398 36.9004 23.7682 33.5905 23.7682ZM60.8437 0.587147C62.2277 0.587147 63.4271 0.961964 64.442 1.7116C65.4569 2.46124 65.9643 3.52802 65.9643 4.91197V14.5304C65.9643 17.4597 65.0705 19.7201 63.2829 21.3117C61.4953 22.8917 59.0216 23.6817 55.8616 23.6817C52.7131 23.6817 50.2624 22.9032 48.5094 21.3463C46.7218 19.7893 45.828 17.5174 45.828 14.5304V2.19598C47.1888 1.11189 48.7631 0.569848 50.5507 0.569848C52.0499 0.569848 53.2378 0.967731 54.1143 1.7635C54.9908 2.54773 55.4291 3.74138 55.4291 5.34445V15.4299C55.5559 15.5222 55.7001 15.5683 55.8616 15.5683C56.0345 15.5683 56.1556 15.528 56.2248 15.4472C56.3056 15.355 56.3459 15.1877 56.3459 14.9455V5.32715C56.3459 4.60058 56.3113 4.02394 56.2421 3.59722C56.1729 3.17051 56.0345 2.74379 55.827 2.31707C57.2109 1.16379 58.8832 0.587147 60.8437 0.587147Z" fill="white"/>
</svg>
