<svg width="37" height="37" viewBox="0 0 37 37" fill="none" xmlns="http://www.w3.org/2000/svg">
<g filter="url(#filter0_d_140_1442)">
<path d="M14.6667 5.33331H5.33341C4.62617 5.33331 3.94789 5.61426 3.4478 6.11436C2.9477 6.61446 2.66675 7.29273 2.66675 7.99998V26.6666C2.66675 27.3739 2.9477 28.0522 3.4478 28.5523C3.94789 29.0524 4.62617 29.3333 5.33341 29.3333H24.0001C24.7073 29.3333 25.3856 29.0524 25.8857 28.5523C26.3858 28.0522 26.6667 27.3739 26.6667 26.6666V17.3333M24.6667 3.33331C25.1972 2.80288 25.9166 2.50488 26.6667 2.50488C27.4169 2.50488 28.1363 2.80288 28.6667 3.33331C29.1972 3.86374 29.4952 4.58316 29.4952 5.33331C29.4952 6.08346 29.1972 6.80288 28.6667 7.33331L16.0001 20L10.6667 21.3333L12.0001 16L24.6667 3.33331Z" stroke="white" stroke-width="2.66667" stroke-linecap="round" stroke-linejoin="round"/>
</g>
<defs>
<filter id="filter0_d_140_1442" x="-1.3" y="-0.3" width="38.6" height="38.6" filterUnits="userSpaceOnUse" color-interpolation-filters="sRGB">
<feFlood flood-opacity="0" result="BackgroundImageFix"/>
<feColorMatrix in="SourceAlpha" type="matrix" values="0 0 0 0 0 0 0 0 0 0 0 0 0 0 0 0 0 0 127 0" result="hardAlpha"/>
<feOffset dx="2" dy="3"/>
<feGaussianBlur stdDeviation="1.65"/>
<feComposite in2="hardAlpha" operator="out"/>
<feColorMatrix type="matrix" values="0 0 0 0 0 0 0 0 0 0 0 0 0 0 0 0 0 0 0.25 0"/>
<feBlend mode="normal" in2="BackgroundImageFix" result="effect1_dropShadow_140_1442"/>
<feBlend mode="normal" in="SourceGraphic" in2="effect1_dropShadow_140_1442" result="shape"/>
</filter>
</defs>
</svg>
